<svg width="29" height="29" viewBox="0 0 29 29" fill="none" xmlns="http://www.w3.org/2000/svg">
<path d="M27.9604 25.3294L27.9584 25.3274L17.1122 14.4605L27.9584 3.59364L27.9759 3.57614L27.9915 3.55699C28.2852 3.19796 28.4351 2.74246 28.4124 2.2791C28.3897 1.81573 28.1961 1.37707 27.8687 1.04855C27.5412 0.719975 27.1033 0.525085 26.6401 0.502258C26.1769 0.47943 25.722 0.630333 25.364 0.925213L25.3449 0.940949L25.3274 0.958496L14.5 11.8394L3.67259 0.958496L3.65513 0.940949L3.63602 0.925213C3.27795 0.630333 2.82308 0.47943 2.35986 0.502258C1.89666 0.525085 1.4588 0.719976 1.13135 1.04855C0.803944 1.37707 0.610304 1.81573 0.587624 2.2791C0.564945 2.74246 0.714811 3.19796 1.00847 3.55699L1.02413 3.57614L1.04161 3.59364L11.8878 14.4605L1.04161 25.3274L1.0416 25.3274L1.03965 25.3294C0.693747 25.6798 0.5 26.1528 0.5 26.6453C0.5 27.1378 0.693747 27.6107 1.03965 27.9611L1.03957 27.9612L1.04732 27.9688C1.39834 28.3093 1.86786 28.5 2.35683 28.5C2.8458 28.5 3.31532 28.3093 3.66634 27.9688L3.66639 27.9688L3.67259 27.9626L14.5 17.0817L25.3274 27.9626L25.3274 27.9626L25.3337 27.9688C25.6847 28.3093 26.1542 28.5 26.6432 28.5C27.1321 28.5 27.6017 28.3093 27.9527 27.9688L27.9528 27.9688L27.9604 27.9611C28.3063 27.6107 28.5 27.1378 28.5 26.6453C28.5 26.1528 28.3063 25.6798 27.9604 25.3294Z" fill="#686868" stroke="#2DE0CA"/>
</svg>
